<svg width="14" height="12" viewBox="0 0 14 12" fill="none" xmlns="http://www.w3.org/2000/svg">
<path fill-rule="evenodd" clip-rule="evenodd" d="M7.29289 0.292893C7.68342 -0.0976311 8.31658 -0.0976311 8.70711 0.292893L13.7071 5.29289C14.0976 5.68342 14.0976 6.31658 13.7071 6.70711L8.70711 11.7071C8.31658 12.0976 7.68342 12.0976 7.29289 11.7071C6.90237 11.3166 6.90237 10.6834 7.29289 10.2929L8.75736 8.82843C10.3195 7.26633 10.3195 4.73367 8.75736 3.17157L7.29289 1.70711C6.90237 1.31658 6.90237 0.683417 7.29289 0.292893Z" fill="#2F80ED"/>
<path fill-rule="evenodd" clip-rule="evenodd" d="M0 6C0 5.44772 0.447715 5 1 5H13C13.5523 5 14 5.44772 14 6C14 6.55228 13.5523 7 13 7H1C0.447715 7 0 6.55228 0 6Z" fill="#2F80ED"/>
</svg>
