<svg width="14" height="12" viewBox="0 0 14 12" fill="none" xmlns="http://www.w3.org/2000/svg">
<path fill-rule="evenodd" clip-rule="evenodd" d="M6.70711 0.292893C6.31658 -0.0976311 5.68342 -0.0976311 5.29289 0.292893L0.292893 5.29289C-0.097631 5.68342 -0.097631 6.31658 0.292893 6.70711L5.29289 11.7071C5.68342 12.0976 6.31658 12.0976 6.70711 11.7071C7.09763 11.3166 7.09763 10.6834 6.70711 10.2929L5.24264 8.82843C3.68054 7.26633 3.68054 4.73367 5.24264 3.17157L6.70711 1.70711C7.09763 1.31658 7.09763 0.683417 6.70711 0.292893Z" fill="#2F80ED"/>
<path fill-rule="evenodd" clip-rule="evenodd" d="M14 6C14 5.44772 13.5523 5 13 5H1C0.447715 5 0 5.44772 0 6C0 6.55228 0.447715 7 1 7H13C13.5523 7 14 6.55228 14 6Z" fill="#2F80ED"/>
</svg>
