<svg width="24" height="24" viewBox="0 0 24 24" fill="none" xmlns="http://www.w3.org/2000/svg">
<path fill-rule="evenodd" clip-rule="evenodd" d="M6 2H14L20 8V20C20 21.1 19.1 22 18 22H5.99C4.89 22 4 21.1 4 20L4.01 4C4.01 2.9 4.9 2 6 2ZM6 4V20H18V9H13V4H6Z" fill="#8C9AAB"/>
<path fill-rule="evenodd" clip-rule="evenodd" d="M8 14H9C9.55 14 10 13.55 10 13V12C10 11.45 9.55 11 9 11H7V16H8V14ZM14 15V12C14 11.45 13.55 11 13 11H11V16H13C13.55 16 14 15.55 14 15ZM12 12H13V15H12V12ZM17 14H16V16H15V11H17V12H16V13H17V14ZM9 12H8V13H9V12Z" fill="#8C9AAB"/>
</svg>
