<svg width="46" height="54" viewBox="0 0 46 54" fill="none" xmlns="http://www.w3.org/2000/svg">
<g filter="url(#filter0_d)">
<path d="M42 22.1111C42 31.0229 35.9356 38.5101 27.7312 40.625C26.2187 41.0149 23 46 23 46C23 46 19.7813 41.0149 18.2688 40.625C10.0644 38.5101 4 31.0229 4 22.1111C4 11.5563 12.5066 3 23 3C33.4934 3 42 11.5563 42 22.1111Z" fill="#1389D3"/>
<path d="M21.7398 46.8136L21.7399 46.8138L21.74 46.8138L23 48.7654L24.26 46.8138L24.2601 46.8138L24.2602 46.8136L24.2613 46.8118L24.2671 46.8029L24.2918 46.765C24.3141 46.731 24.3476 46.68 24.3911 46.6144C24.4782 46.4832 24.6053 46.2937 24.7627 46.0646C25.0787 45.6048 25.5124 44.9922 25.9884 44.3719C26.469 43.7456 26.9703 43.1409 27.4224 42.6821C27.6487 42.4523 27.8398 42.2826 27.9905 42.1702C28.0777 42.1052 28.1287 42.0765 28.1459 42.0671C36.9815 39.77 43.5 31.7037 43.5 22.1111C43.5 10.7362 34.3301 1.5 23 1.5C11.6699 1.5 2.5 10.7362 2.5 22.1111C2.5 31.7037 9.0185 39.77 17.8541 42.0671C17.8713 42.0765 17.9223 42.1052 18.0095 42.1702C18.1602 42.2826 18.3513 42.4523 18.5776 42.6821C19.0297 43.1409 19.531 43.7456 20.0116 44.3719C20.4876 44.9922 20.9213 45.6048 21.2373 46.0646C21.3947 46.2937 21.5218 46.4832 21.6089 46.6144C21.6524 46.68 21.6859 46.731 21.7082 46.765L21.7329 46.8029L21.7387 46.8118L21.7398 46.8136Z" stroke="white" stroke-width="3"/>
</g>
<defs>
<filter id="filter0_d" x="0" y="0" width="46" height="53.5308" filterUnits="userSpaceOnUse" color-interpolation-filters="sRGB">
<feFlood flood-opacity="0" result="BackgroundImageFix"/>
<feColorMatrix in="SourceAlpha" type="matrix" values="0 0 0 0 0 0 0 0 0 0 0 0 0 0 0 0 0 0 127 0"/>
<feOffset dy="1"/>
<feGaussianBlur stdDeviation="0.5"/>
<feColorMatrix type="matrix" values="0 0 0 0 0 0 0 0 0 0 0 0 0 0 0 0 0 0 0.37 0"/>
<feBlend mode="normal" in2="BackgroundImageFix" result="effect1_dropShadow"/>
<feBlend mode="normal" in="SourceGraphic" in2="effect1_dropShadow" result="shape"/>
</filter>
</defs>
</svg>
