<svg width="32" height="32" viewBox="0 0 32 32" fill="none" xmlns="http://www.w3.org/2000/svg">
<path fill-rule="evenodd" clip-rule="evenodd" d="M16.0018 2.66699C10.8418 2.66699 6.66846 6.84033 6.66846 12.0003C6.66846 19.0003 16.0018 29.3337 16.0018 29.3337C16.0018 29.3337 25.3351 19.0003 25.3351 12.0003C25.3351 6.84033 21.1618 2.66699 16.0018 2.66699ZM9.33715 12.0003C9.33715 8.32026 12.3238 5.3336 16.0038 5.3336C19.6838 5.3336 22.6705 8.32026 22.6705 12.0003C22.6705 15.8403 18.8305 21.5869 16.0038 25.1736C13.2305 21.6136 9.33715 15.8003 9.33715 12.0003ZM12.6685 12.0003C12.6685 10.1594 14.1608 8.66699 16.0018 8.66699C17.1927 8.66699 18.2931 9.30232 18.8885 10.3337C19.484 11.365 19.484 12.6357 18.8885 13.667C18.2931 14.6983 17.1927 15.3337 16.0018 15.3337C14.1608 15.3337 12.6685 13.8413 12.6685 12.0003Z" fill="#8C9AAB"/>
</svg>
