<svg width="16" height="16" viewBox="0 0 16 16" fill="none" xmlns="http://www.w3.org/2000/svg">
<path d="M8.00033 0C3.58187 0 0 3.58252 0 8.00033C0 12.4188 3.58187 16 8.00033 16C12.4188 16 16 12.4188 16 8.00033C16 3.58252 12.4185 0 8.00033 0ZM12.0302 6.38727C12.0344 6.47368 12.0361 6.56043 12.0361 6.64815C12.0361 9.31254 10.0081 12.3843 6.29987 12.3843C5.16147 12.3843 4.10137 12.0507 3.20923 11.4789C3.36712 11.4974 3.52729 11.5068 3.69006 11.5068C4.63483 11.5068 5.50422 11.1845 6.19396 10.6439C5.31189 10.6274 4.56758 10.0442 4.31092 9.24334C4.43372 9.26738 4.5601 9.2794 4.69006 9.2794C4.87394 9.2794 5.05198 9.25536 5.22125 9.2089C4.29857 9.02372 3.60364 8.20825 3.60364 7.23229C3.60364 7.22352 3.60364 7.21508 3.60396 7.2063C3.87557 7.35738 4.18649 7.44802 4.51722 7.45874C3.97596 7.09649 3.62021 6.48018 3.62021 5.78038C3.62021 5.41098 3.71962 5.06433 3.89311 4.76673C4.88759 5.98636 6.37329 6.78915 8.04906 6.87297C8.01462 6.7258 7.99675 6.57148 7.99675 6.41358C7.99675 5.30052 8.89929 4.39766 10.013 4.39766C10.5929 4.39766 11.1166 4.64263 11.4844 5.03411C11.9438 4.94412 12.3752 4.77583 12.7648 4.54484C12.6137 5.01592 12.2943 5.41098 11.8778 5.66017C12.2862 5.61144 12.6748 5.50292 13.0361 5.34276C12.7664 5.74789 12.4243 6.10299 12.0302 6.38727Z" fill="#1A97F0"/>
</svg>
