<svg width="16" height="16" viewBox="0 0 16 16" fill="none" xmlns="http://www.w3.org/2000/svg">
<path fill-rule="evenodd" clip-rule="evenodd" d="M16 8C16 12.4183 12.4183 16 8 16C3.58172 16 0 12.4183 0 8C0 3.58172 3.58172 0 8 0C12.4183 0 16 3.58172 16 8ZM10.5203 8.00001C10.4003 8.00001 10.2403 8.08001 10.0269 8.18668C9.60026 8.40001 8.96025 8.72001 8.00025 8.72001C7.04025 8.72001 6.40025 8.40001 5.97359 8.18668C5.76025 8.08001 5.60025 8.00001 5.48025 8.00001C5.08425 8.00001 4.76025 8.32401 4.76025 8.72001C4.76025 9.08001 4.97625 9.26001 5.12025 9.33201C5.55225 9.58401 6.92025 10.16 6.92025 10.16L5.37225 12.104C5.37225 12.104 5.08425 12.428 5.08425 12.68C5.08425 13.076 5.40825 13.4 5.80425 13.4C6.16425 13.4 6.34425 13.148 6.34425 13.148L8.00025 11.24L9.62025 13.148C9.62025 13.148 9.80025 13.4 10.1603 13.4C10.5563 13.4 10.8803 13.076 10.8803 12.68C10.8803 12.464 10.5923 12.104 10.5923 12.104L9.08025 10.16C9.08025 10.16 10.4483 9.58401 10.8803 9.33201L10.8999 9.31731C11.0431 9.21072 11.2403 9.06394 11.2403 8.72001C11.2403 8.32401 10.9163 8.00001 10.5203 8.00001ZM5.48053 5.1204C5.48053 3.7164 6.59653 2.6004 8.00053 2.6004C9.40453 2.6004 10.5205 3.7164 10.5205 5.1204C10.5205 6.5244 9.40453 7.6404 8.00053 7.6404C6.59653 7.6404 5.48053 6.5244 5.48053 5.1204ZM6.74053 5.1204C6.74053 5.8044 7.31653 6.3804 8.00053 6.3804C8.68453 6.3804 9.26053 5.8044 9.26053 5.1204C9.26053 4.4364 8.68453 3.8604 8.00053 3.8604C7.31653 3.8604 6.74053 4.4364 6.74053 5.1204Z" fill="#F2720C"/>
</svg>
