<svg width="24" height="24" viewBox="0 0 24 24" fill="none" xmlns="http://www.w3.org/2000/svg">
<path fill-rule="evenodd" clip-rule="evenodd" d="M13.6796 5C13.9602 5 14.2279 5.11791 14.4173 5.32494L15.95 7H19C19.5523 7 20 7.44772 20 8V18C20 18.5523 19.5523 19 19 19H5C4.44772 19 4 18.5523 4 18V8C4 7.44772 4.44772 7 5 7H8.05L9.58268 5.32494C9.77211 5.11791 10.0398 5 10.3204 5H13.6796ZM12 11C13.1 11 14 11.9 14 13C14 14.1 13.1 15 12 15C10.9 15 10 14.1 10 13C10 11.9 10.9 11 12 11ZM8 13C8 10.792 9.792 9 12 9C14.208 9 16 10.792 16 13C16 15.208 14.208 17 12 17C9.792 17 8 15.208 8 13Z" fill="#1389D3"/>
</svg>
