<svg width="16" height="16" viewBox="0 0 16 16" fill="none" xmlns="http://www.w3.org/2000/svg">
<path fill-rule="evenodd" clip-rule="evenodd" d="M8 16C12.4183 16 16 12.4183 16 8C16 3.58172 12.4183 0 8 0C3.58172 0 0 3.58172 0 8C0 12.4183 3.58172 16 8 16ZM8.26486 11.3772H7.63724C7.63724 11.3772 6.25241 11.4608 5.03294 10.189C3.703 8.80189 2.52843 6.04936 2.52843 6.04936C2.52843 6.04936 2.46072 5.86889 2.53428 5.78165C2.61695 5.68356 2.84217 5.67727 2.84217 5.67727L4.34246 5.66742C4.34246 5.66742 4.48386 5.69112 4.58507 5.76551C4.66846 5.82691 4.71521 5.9417 4.71521 5.9417C4.71521 5.9417 4.95768 6.55595 5.27883 7.11165C5.9056 8.1965 6.19754 8.4338 6.41035 8.31758C6.72039 8.1481 6.62745 6.78397 6.62745 6.78397C6.62745 6.78397 6.63315 6.28881 6.47136 6.06835C6.34607 5.89744 6.10973 5.84761 6.00538 5.83362C5.921 5.82234 6.05955 5.62602 6.23916 5.53792C6.50914 5.40542 6.98595 5.39785 7.54929 5.40371C7.98818 5.40813 8.11448 5.43555 8.2861 5.4771C8.68428 5.5734 8.67186 5.88198 8.64507 6.54777C8.63707 6.74671 8.62778 6.97755 8.62778 7.24415C8.62778 7.30413 8.62604 7.36807 8.62424 7.43384C8.61494 7.77483 8.60429 8.16523 8.82834 8.31029C8.94323 8.38454 9.22433 8.32143 9.92736 7.12564C10.2606 6.55895 10.5105 5.89259 10.5105 5.89259C10.5105 5.89259 10.5651 5.77379 10.6499 5.72282C10.7367 5.67085 10.8538 5.68684 10.8538 5.68684L12.4326 5.67699C12.4326 5.67699 12.907 5.62031 12.9838 5.83476C13.0643 6.05993 12.8065 6.58565 12.1615 7.44676C11.5489 8.26461 11.2512 8.56517 11.2793 8.83142C11.2997 9.02548 11.4932 9.20131 11.8638 9.54592C12.641 10.2685 12.8481 10.6479 12.8973 10.738C12.9013 10.7453 12.9043 10.7507 12.9064 10.7543C13.2542 11.332 12.5207 11.3772 12.5207 11.3772L11.1185 11.3968C11.1185 11.3968 10.8171 11.4566 10.4206 11.1838C10.2132 11.0412 10.0104 10.8084 9.81725 10.5865C9.52194 10.2474 9.249 9.93398 9.01607 10.008C8.62522 10.1322 8.63747 10.9757 8.63747 10.9757C8.63747 10.9757 8.64032 11.1559 8.55123 11.2519C8.45445 11.3564 8.26486 11.3772 8.26486 11.3772Z" fill="#1389D3"/>
</svg>
