<svg width="15" height="15" viewBox="0 0 15 15" fill="none" xmlns="http://www.w3.org/2000/svg">
<path fill-rule="evenodd" clip-rule="evenodd" d="M9.75833 9.16667H10.4167L14.575 13.3333L13.3333 14.575L9.16667 10.4167V9.75833L8.94167 9.525C7.99167 10.3417 6.75833 10.8333 5.41667 10.8333C2.425 10.8333 0 8.40833 0 5.41667C0 2.425 2.425 0 5.41667 0C8.40833 0 10.8333 2.425 10.8333 5.41667C10.8333 6.75833 10.3417 7.99167 9.525 8.94167L9.75833 9.16667ZM1.66797 5.41663C1.66797 7.49163 3.34297 9.16663 5.41797 9.16663C7.49297 9.16663 9.16797 7.49163 9.16797 5.41663C9.16797 3.34163 7.49297 1.66663 5.41797 1.66663C3.34297 1.66663 1.66797 3.34163 1.66797 5.41663Z" fill="white"/>
</svg>
