<svg width="32" height="32" viewBox="0 0 32 32" fill="none" xmlns="http://www.w3.org/2000/svg">
<circle cx="16" cy="16" r="16" fill="#E9EFF4"/>
<path fill-rule="evenodd" clip-rule="evenodd" d="M17.6796 9C17.9602 9 18.2279 9.11791 18.4173 9.32494L19.95 11H23C23.5523 11 24 11.4477 24 12V22C24 22.5523 23.5523 23 23 23H9C8.44772 23 8 22.5523 8 22V12C8 11.4477 8.44772 11 9 11H12.05L13.5827 9.32494C13.7721 9.11791 14.0398 9 14.3204 9H17.6796ZM16 15C17.1 15 18 15.9 18 17C18 18.1 17.1 19 16 19C14.9 19 14 18.1 14 17C14 15.9 14.9 15 16 15ZM12 17C12 14.792 13.792 13 16 13C18.208 13 20 14.792 20 17C20 19.208 18.208 21 16 21C13.792 21 12 19.208 12 17Z" fill="#1389D3"/>
</svg>
