<svg width="64" height="80" viewBox="0 0 64 80" fill="none" xmlns="http://www.w3.org/2000/svg">
<path d="M61 50C60.1511 50.0158 59.3189 50.2385 58.5756 50.6489C57.8324 51.0593 57.2006 51.645 56.735 52.355C55.931 53.31 55.349 54 54 54C52.651 54 52.069 53.31 51.265 52.355C50.7994 51.645 50.1676 51.0593 49.4244 50.6489C48.6811 50.2385 47.8489 50.0158 47 50C46.83 50 46.679 50.021 46.522 50.035L51.97 28.243C52.0339 27.9878 51.9948 27.7177 51.8609 27.4912C51.7271 27.2647 51.5094 27.1001 51.255 27.033L47 25.913V15C47 14.7348 46.8946 14.4804 46.7071 14.2929C46.5196 14.1054 46.2652 14 46 14H43V7C43 6.73478 42.8946 6.48043 42.7071 6.29289C42.5196 6.10536 42.2652 6 42 6H33V3C33 2.73478 32.8946 2.48043 32.7071 2.29289C32.5196 2.10536 32.2652 2 32 2C31.7348 2 31.4804 2.10536 31.2929 2.29289C31.1054 2.48043 31 2.73478 31 3V6H22C21.7348 6 21.4804 6.10536 21.2929 6.29289C21.1054 6.48043 21 6.73478 21 7V14H18C17.7348 14 17.4804 14.1054 17.2929 14.2929C17.1054 14.4804 17 14.7348 17 15V25.7L12.759 26.754C12.5035 26.8173 12.2832 26.9788 12.146 27.2034C12.0087 27.4281 11.9656 27.6978 12.026 27.954L17.478 50.037C17.32 50.019 17.167 50 17 50C16.1512 50.0162 15.3192 50.2392 14.576 50.6495C13.8328 51.0599 13.2009 51.6453 12.735 52.355C11.93 53.31 11.348 54 10 54C8.652 54 8.07 53.31 7.265 52.355C6.79913 51.6453 6.16722 51.0599 5.42404 50.6495C4.68085 50.2392 3.8488 50.0162 3 50C2.73478 50 2.48043 50.1054 2.29289 50.2929C2.10536 50.4804 2 50.7348 2 51V57C2 57.2652 2.10536 57.5196 2.29289 57.7071C2.48043 57.8946 2.73478 58 3 58C4.348 58 4.93 58.69 5.735 59.645C6.20087 60.3547 6.83278 60.9401 7.57596 61.3505C8.31915 61.7608 9.1512 61.9838 10 62C10.8488 61.9838 11.6808 61.7608 12.424 61.3505C13.1672 60.9401 13.7991 60.3547 14.265 59.645C15.07 58.69 15.652 58 17 58C18.424 58 19.3 58.806 20.325 59.738C21.485 60.8 22.8 62 25 62C25.8485 61.9843 26.6803 61.7615 27.4229 61.3508C28.1656 60.9402 28.7966 60.3543 29.261 59.644C30.061 58.689 30.644 58 31.99 58C33.416 58 34.299 58.806 35.321 59.739C36.482 60.8 37.8 62 40 62C40.8488 61.9839 41.6809 61.761 42.4241 61.3506C43.1673 60.9402 43.7992 60.3548 44.265 59.645C45.07 58.69 45.652 58 47 58C48.348 58 48.931 58.69 49.735 59.645C50.1889 60.366 50.8182 60.9601 51.5641 61.3719C52.31 61.7836 53.148 61.9996 54 61.9996C54.852 61.9996 55.69 61.7836 56.4359 61.3719C57.1818 60.9601 57.8111 60.366 58.265 59.645C59.069 58.69 59.651 58 61 58C61.2652 58 61.5196 57.8946 61.7071 57.7071C61.8946 57.5196 62 57.2652 62 57V51C62 50.7348 61.8946 50.4804 61.7071 50.2929C61.5196 50.1054 61.2652 50 61 50ZM49.266 30.812L33 27.2V24.3L49.79 28.719L49.266 30.812ZM23 8H41V14H23V8ZM27 16H37V18H27V16ZM25 16V19C25 19.2652 25.1054 19.5196 25.2929 19.7071C25.4804 19.8946 25.7348 20 26 20H38C38.2652 20 38.5196 19.8946 38.7071 19.7071C38.8946 19.5196 39 19.2652 39 19V16H45V25.387L32.255 22.033C32.1717 22.0114 32.086 22.0003 32 22H31.992C31.9135 21.9995 31.8353 22.0086 31.759 22.027L19 25.2V16H25ZM31 24.279V27.2L14.749 30.809L14.2 28.455L31 24.279ZM15.219 32.753L31 29.247V43C31 43.2652 31.1054 43.5196 31.2929 43.7071C31.4804 43.8946 31.7348 44 32 44C32.2652 44 32.5196 43.8946 32.7071 43.7071C32.8946 43.5196 33 43.2652 33 43V29.247L48.781 32.753L44.281 50.753C44.2795 50.78 44.2795 50.807 44.281 50.834C43.7041 51.2715 43.1859 51.7814 42.739 52.351C41.93 53.31 41.348 54 40 54C38.574 54 37.691 53.194 36.669 52.261C35.508 51.2 34.19 50 31.99 50C31.1416 50.0153 30.3098 50.238 29.5673 50.6487C28.8247 51.0594 28.194 51.6455 27.73 52.356C26.928 53.311 26.347 54 25 54C23.576 54 22.7 53.194 21.675 52.262C21.0795 51.6787 20.4211 51.1632 19.712 50.725L15.219 32.753ZM60 56.092C58.6717 56.422 57.5102 57.227 56.735 58.355C55.931 59.31 55.349 60 54 60C52.651 60 52.069 59.31 51.265 58.355C50.8111 57.634 50.1818 57.0399 49.4359 56.6281C48.69 56.2164 47.852 56.0004 47 56.0004C46.148 56.0004 45.31 56.2164 44.5641 56.6281C43.8182 57.0399 43.1889 57.634 42.735 58.355C41.93 59.31 41.348 60 40 60C38.574 60 37.691 59.194 36.669 58.261C35.508 57.2 34.19 56 31.99 56C31.1416 56.0153 30.3098 56.238 29.5673 56.6487C28.8247 57.0594 28.194 57.6455 27.73 58.356C26.928 59.311 26.347 60 25 60C23.576 60 22.7 59.194 21.675 58.262C20.515 57.2 19.2 56 17 56C16.1512 56.0162 15.3192 56.2392 14.576 56.6495C13.8328 57.0599 13.2009 57.6453 12.735 58.355C11.93 59.31 11.348 60 10 60C8.652 60 8.07 59.31 7.265 58.355C6.48961 57.2274 5.32816 56.4227 4 56.093V52.163C4.69985 52.4939 5.29877 53.0055 5.735 53.645C6.20087 54.3547 6.83278 54.9401 7.57596 55.3505C8.31915 55.7608 9.1512 55.9838 10 56C10.8488 55.9838 11.6808 55.7608 12.424 55.3505C13.1672 54.9401 13.7991 54.3547 14.265 53.645C15.07 52.69 15.652 52 17 52C18.424 52 19.3 52.806 20.325 53.738C21.485 54.8 22.8 56 25 56C25.8485 55.9843 26.6803 55.7615 27.4229 55.3508C28.1656 54.9402 28.7966 54.3543 29.261 53.644C30.061 52.689 30.644 52 31.99 52C33.416 52 34.299 52.806 35.321 53.739C36.482 54.8 37.8 56 40 56C40.8488 55.9839 41.6809 55.761 42.4241 55.3506C43.1673 54.9402 43.7992 54.3548 44.265 53.645C45.07 52.69 45.652 52 47 52C48.348 52 48.931 52.69 49.735 53.645C50.1889 54.366 50.8182 54.9601 51.5641 55.3719C52.31 55.7836 53.148 55.9996 54 55.9996C54.852 55.9996 55.69 55.7836 56.4359 55.3719C57.1818 54.9601 57.8111 54.366 58.265 53.645C58.7007 53.0048 59.2997 52.4927 60 52.162V56.092Z" fill="black"/>
<path d="M35.7833 33.9761L44.7833 35.9761C44.8546 35.9918 44.9273 35.9999 45.0003 36.0001C45.2464 35.9996 45.4837 35.9085 45.6668 35.744C45.8499 35.5796 45.9659 35.3534 45.9926 35.1087C46.0194 34.8641 45.955 34.6182 45.8117 34.4181C45.6685 34.2179 45.4565 34.0777 45.2163 34.0241L36.2163 32.0241C36.0872 31.9929 35.9531 31.9877 35.8219 32.0089C35.6908 32.0301 35.5652 32.0772 35.4524 32.1475C35.3397 32.2178 35.242 32.3098 35.1653 32.4183C35.0885 32.5267 35.0341 32.6494 35.0053 32.7791C34.9764 32.9088 34.9737 33.0429 34.9973 33.1736C35.0209 33.3044 35.0703 33.4291 35.1427 33.5406C35.215 33.652 35.3088 33.7479 35.4187 33.8227C35.5285 33.8975 35.6521 33.9496 35.7823 33.9761H35.7833Z" fill="black"/>
<path d="M28.9772 32.783C28.9487 32.6547 28.8952 32.5334 28.8197 32.4258C28.7443 32.3182 28.6484 32.2266 28.5375 32.1561C28.4266 32.0856 28.3029 32.0376 28.1735 32.015C28.0441 31.9923 27.9115 31.9954 27.7832 32.024L18.7832 34.024C18.5429 34.0776 18.3309 34.218 18.1876 34.4182C18.0444 34.6184 17.9801 34.8645 18.007 35.1092C18.0338 35.3539 18.15 35.5801 18.3333 35.7445C18.5166 35.9088 18.754 35.9998 19.0002 36C19.0735 35.9999 19.1466 35.9918 19.2182 35.976L28.2182 33.976C28.477 33.9184 28.7024 33.7604 28.8447 33.5367C28.9871 33.3129 29.0347 33.0419 28.9772 32.783Z" fill="black"/>
<path d="M22 22C22.2652 22 22.5196 21.8946 22.7071 21.7071C22.8946 21.5196 23 21.2652 23 21V19C23 18.7348 22.8946 18.4804 22.7071 18.2929C22.5196 18.1054 22.2652 18 22 18C21.7348 18 21.4804 18.1054 21.2929 18.2929C21.1054 18.4804 21 18.7348 21 19V21C21 21.2652 21.1054 21.5196 21.2929 21.7071C21.4804 21.8946 21.7348 22 22 22Z" fill="black"/>
<path d="M42 22C42.2652 22 42.5196 21.8946 42.7071 21.7071C42.8946 21.5196 43 21.2652 43 21V19C43 18.7348 42.8946 18.4804 42.7071 18.2929C42.5196 18.1054 42.2652 18 42 18C41.7348 18 41.4804 18.1054 41.2929 18.2929C41.1054 18.4804 41 18.7348 41 19V21C41 21.2652 41.1054 21.5196 41.2929 21.7071C41.4804 21.8946 41.7348 22 42 22Z" fill="black"/>
<path d="M27 12C27.2652 12 27.5196 11.8946 27.7071 11.7071C27.8946 11.5196 28 11.2652 28 11C28 10.7348 27.8946 10.4804 27.7071 10.2929C27.5196 10.1054 27.2652 10 27 10H26C25.7348 10 25.4804 10.1054 25.2929 10.2929C25.1054 10.4804 25 10.7348 25 11C25 11.2652 25.1054 11.5196 25.2929 11.7071C25.4804 11.8946 25.7348 12 26 12H27Z" fill="black"/>
<path d="M31 12H33C33.2652 12 33.5196 11.8946 33.7071 11.7071C33.8946 11.5196 34 11.2652 34 11C34 10.7348 33.8946 10.4804 33.7071 10.2929C33.5196 10.1054 33.2652 10 33 10H31C30.7348 10 30.4804 10.1054 30.2929 10.2929C30.1054 10.4804 30 10.7348 30 11C30 11.2652 30.1054 11.5196 30.2929 11.7071C30.4804 11.8946 30.7348 12 31 12Z" fill="black"/>
<path d="M37 12H38C38.2652 12 38.5196 11.8946 38.7071 11.7071C38.8946 11.5196 39 11.2652 39 11C39 10.7348 38.8946 10.4804 38.7071 10.2929C38.5196 10.1054 38.2652 10 38 10H37C36.7348 10 36.4804 10.1054 36.2929 10.2929C36.1054 10.4804 36 10.7348 36 11C36 11.2652 36.1054 11.5196 36.2929 11.7071C36.4804 11.8946 36.7348 12 37 12Z" fill="black"/>
<path d="M25.1113 47.111C26.6023 47.111 27.8473 45.895 28.9193 43.394C29.0194 43.1511 29.0198 42.8785 28.9205 42.6352C28.8212 42.392 28.6302 42.1975 28.3887 42.094C28.1472 41.9905 27.8747 41.9861 27.63 42.0819C27.3854 42.1778 27.1883 42.366 27.0813 42.606C26.8139 43.2876 26.4498 43.9271 26.0003 44.505V40H27.0003C27.2655 40 27.5199 39.8946 27.7074 39.7071C27.8949 39.5196 28.0003 39.2652 28.0003 39C28.0003 38.7348 27.8949 38.4804 27.7074 38.2929C27.5199 38.1054 27.2655 38 27.0003 38H23.0003C22.7351 38 22.4807 38.1054 22.2932 38.2929C22.1056 38.4804 22.0003 38.7348 22.0003 39C22.0003 39.2652 22.1056 39.5196 22.2932 39.7071C22.4807 39.8946 22.7351 40 23.0003 40H24.0003V44.349C23.5603 43.8192 23.1964 43.2305 22.9193 42.6C22.8145 42.3563 22.6172 42.1641 22.3708 42.0659C22.1244 41.9676 21.849 41.9712 21.6053 42.076C21.3616 42.1808 21.1694 42.3781 21.0712 42.6245C20.9729 42.8709 20.9765 43.1463 21.0813 43.39C21.2443 43.774 22.7423 47.111 25.1113 47.111Z" fill="black"/>
</svg>
