<svg width="120" height="120" viewBox="0 0 120 120" fill="none" xmlns="http://www.w3.org/2000/svg">
<g clip-path="url(#clip0_780_46377)">
<path d="M60 120C93.1371 120 120 93.1371 120 60C120 26.8629 93.1371 0 60 0C26.8629 0 0 26.8629 0 60C0 93.1371 26.8629 120 60 120Z" fill="white"/>
<path d="M69.4108 68.1689C64.9682 73.0892 57.3726 73.4714 52.4522 69.0287C47.5319 64.5383 47.1497 56.9427 51.5924 51.9746C56.035 47.0542 63.6784 46.672 68.5987 51.1147C73.4714 55.6052 73.8535 63.2485 69.4108 68.1689Z" fill="url(#paint0_radial_780_46377)"/>
<path d="M63.6306 18.8215C64.6338 19.8247 65.5892 20.8279 66.4013 21.8311C71.2261 27.6113 73.5191 33.3438 73.5191 33.3438C76.6242 33.9171 79.4904 34.0604 82.1656 33.9648C82.3567 33.9648 82.5 33.9648 82.6911 33.9648C82.8344 33.9648 82.9777 33.9171 83.1688 33.9171C89.1401 33.3916 96.879 31.0986 103.901 24.0285C104.14 23.7897 104.379 23.503 104.618 23.2642C103.519 21.9744 102.42 20.6846 101.178 19.4425C80.6369 -1.09887 48.6306 -2.86639 26.035 13.9967C43.758 5.44572 56.035 11.3693 63.6306 18.8215Z" fill="url(#paint1_linear_780_46377)"/>
<path d="M22.8344 77.3405C23.1687 75.9551 23.5987 74.6653 24.0764 73.4233C26.656 66.3532 30.4777 61.5284 30.4777 61.5284C29.4267 58.5666 28.1369 55.987 26.656 53.7418C26.5605 53.5985 26.4649 53.4551 26.3694 53.3118C26.2738 53.1685 26.1783 53.073 26.0828 52.9297C22.691 48.0093 16.8152 42.4679 7.16556 39.8883C6.83117 39.7927 6.49677 39.6972 6.16238 39.6494C5.58913 41.2258 5.01588 42.85 4.58594 44.522C-2.86629 72.5634 11.6082 101.178 37.5 112.309C21.1624 101.274 20.1592 87.659 22.8344 77.3405Z" fill="url(#paint2_linear_780_46377)"/>
<path d="M94.0127 83.4554C92.6273 83.8376 91.2897 84.1242 89.9999 84.363C82.5477 85.6529 76.4808 84.7452 76.4808 84.7452C74.4267 87.1337 72.8502 89.5701 71.6082 91.9586C71.5127 92.1019 71.4649 92.2452 71.3693 92.4363C71.3216 92.5796 71.226 92.7229 71.1783 92.8662C68.6464 98.3121 66.7834 106.146 69.363 115.796C69.4585 116.131 69.5541 116.465 69.6496 116.799C71.3216 116.513 72.9935 116.178 74.6655 115.748C102.659 108.201 120.239 81.3535 116.895 53.3599C115.605 72.9458 104.331 80.6369 94.0127 83.4554Z" fill="url(#paint3_linear_780_46377)"/>
<path d="M26.035 13.9966C26.035 13.9966 13.519 21.831 7.02222 37.5475C8.74196 37.8341 26.1783 41.3692 32.6751 60.7163C34.2515 59.7131 39.1241 55.8437 42.4203 45.2386C46.3853 32.3883 53.8853 22.9297 63.6305 18.8214C63.6305 18.8214 51.2579 1.24178 26.035 13.9966Z" fill="url(#paint4_linear_780_46377)"/>
<path d="M65.6369 106.385C65.6369 99.8886 67.4522 91.2899 74.6656 83.1689L74.7611 83.0255C73.5669 81.7835 69.4586 78.6784 58.8535 81.0669C45.7643 84.0287 31.3376 83.6943 22.8821 77.3408C22.8821 77.3408 13.8057 96.8313 37.5 112.309C37.5 112.309 50.4936 119.188 67.3567 117.038C67.0223 116.178 65.6369 112.07 65.6369 106.385Z" fill="url(#paint5_linear_780_46377)"/>
<path d="M106.146 25.0796C104.283 27.3248 95.4459 36.5923 80.6847 36.6401C78.2962 36.6401 75.7643 36.4012 73.1369 35.828L72.9936 35.7802C72.5159 37.5477 72.086 42.6114 79.2994 50.3981C88.4236 60.2388 95.3503 72.9458 94.0605 83.4076C94.0605 83.4076 115.462 81.4968 117.038 53.2643C116.99 53.3121 116.465 38.5987 106.146 25.0796Z" fill="url(#paint6_linear_780_46377)"/>
</g>
<defs>
<radialGradient id="paint0_radial_780_46377" cx="0" cy="0" r="1" gradientUnits="userSpaceOnUse" gradientTransform="translate(56.6558 53.3704) rotate(0.0550921) scale(16.9204 16.9692)">
<stop stop-color="#4A96D2"/>
<stop offset="1" stop-color="#1F2466"/>
</radialGradient>
<linearGradient id="paint1_linear_780_46377" x1="43.9844" y1="6.43094" x2="94.6017" y2="26.8137" gradientUnits="userSpaceOnUse">
<stop stop-color="#4A96D2"/>
<stop offset="1" stop-color="#1F2466"/>
</linearGradient>
<linearGradient id="paint2_linear_780_46377" x1="21.9326" y1="100.551" x2="14.2757" y2="46.5249" gradientUnits="userSpaceOnUse">
<stop stop-color="#4A96D2"/>
<stop offset="1" stop-color="#1F2466"/>
</linearGradient>
<linearGradient id="paint3_linear_780_46377" x1="114.605" y1="72.6542" x2="71.6449" y2="106.297" gradientUnits="userSpaceOnUse">
<stop stop-color="#4995D1"/>
<stop offset="1" stop-color="#292B64"/>
</linearGradient>
<linearGradient id="paint4_linear_780_46377" x1="23.7361" y1="45.1776" x2="46.4887" y2="10.2642" gradientUnits="userSpaceOnUse">
<stop stop-color="#4A96D2"/>
<stop offset="1" stop-color="#1F2466"/>
</linearGradient>
<linearGradient id="paint5_linear_780_46377" x1="66.7815" y1="94.9697" x2="25.966" y2="99.1305" gradientUnits="userSpaceOnUse">
<stop stop-color="#4A96D2"/>
<stop offset="1" stop-color="#1F2466"/>
</linearGradient>
<linearGradient id="paint6_linear_780_46377" x1="93.0603" y1="35.9298" x2="101.382" y2="77.9341" gradientUnits="userSpaceOnUse">
<stop stop-color="#4A96D2"/>
<stop offset="1" stop-color="#1F2466"/>
</linearGradient>
<clipPath id="clip0_780_46377">
<rect width="120" height="120" fill="white"/>
</clipPath>
</defs>
</svg>
