<svg width="59" height="74" viewBox="0 0 59 74" fill="none" xmlns="http://www.w3.org/2000/svg">
<path d="M58.1061 20.3612H39.3333V0.89697C39.3333 0.358788 38.9758 0 38.4394 0H11.2636C10.7273 0 10.3697 0.358788 10.3697 0.89697V20.2715C9.92273 19.823 9.56515 19.4642 9.11818 19.0158C8.76061 18.657 8.22424 18.7467 7.86667 19.0158C3.21818 23.3212 0.983333 27.537 1.25152 31.4836C1.4303 34.9818 3.57576 38.3903 7.50909 41.44V52.1139H0.893939C0.357576 52.1139 0 52.4727 0 53.0109V58.303C0 58.8412 0.357576 59.2 0.893939 59.2C5.54242 59.2 52.2061 59.2 58.1061 59.2C58.6424 59.2 59 58.8412 59 58.303V21.2582C59 20.8097 58.6424 20.3612 58.1061 20.3612ZM3.03939 31.4836C2.86061 28.2545 4.73788 24.6667 8.49242 20.9891C12.5152 24.7564 14.3924 28.2545 14.2136 31.4836C14.0348 34.1745 12.4258 36.8655 9.38636 39.377V33.1879L11.8 29.5103C12.0682 29.0618 11.9788 28.5236 11.5318 28.2545C11.0848 27.9855 10.5485 28.0752 10.2803 28.5236L8.40303 31.3042L6.34697 28.5236C6.07879 28.1648 5.45303 28.0752 5.09545 28.3442C4.73788 28.6133 4.64848 29.2412 4.91667 29.6L7.59848 33.1879V39.1976C4.73788 36.6861 3.21818 34.1745 3.03939 31.4836ZM9.29697 41.6194C11.7106 39.8255 13.4985 37.8521 14.6606 35.8788C14.8394 36.0582 15.0182 36.1479 15.2864 36.1479H22.5273C23.0636 36.1479 23.4212 35.7891 23.4212 35.2509V28.703C23.4212 28.1649 23.0636 27.8061 22.5273 27.8061H15.3758C14.75 26.0121 13.6773 24.1285 12.0682 22.2448V1.79394H37.5455V21.2582V57.4061H31.9136V38.7491C31.9136 38.2109 31.5561 37.8521 31.0197 37.8521H18.6833C18.147 37.8521 17.7894 38.2109 17.7894 38.7491V57.4061H16.6273V53.1006C16.6273 52.5624 16.2697 52.2036 15.7333 52.2036H9.29697V41.6194ZM16.1803 34.3539V29.6H21.6333V34.4436H16.1803V34.3539ZM19.5773 57.4061V39.6461H30.1258V57.4061H19.5773ZM1.78788 53.9976H14.8394V57.4061H1.78788V53.9976ZM57.2121 57.4061H39.3333V22.1552H57.2121V57.4061Z" fill="black"/>
<path d="M43.9818 33.6365H52.5636C53.1 33.6365 53.4576 33.2778 53.4576 32.7396V25.4741C53.4576 24.9359 53.1 24.5771 52.5636 24.5771H43.9818C43.4455 24.5771 43.0879 24.9359 43.0879 25.4741V32.7396C43.0879 33.1881 43.4455 33.6365 43.9818 33.6365ZM44.8758 26.3711H51.6697V31.8426H44.8758V26.3711Z" fill="black"/>
<path d="M43.9818 44.8484H52.5636C53.1 44.8484 53.4576 44.4897 53.4576 43.9515V36.686C53.4576 36.1479 53.1 35.7891 52.5636 35.7891H43.9818C43.4455 35.7891 43.0879 36.1479 43.0879 36.686V43.9515C43.0879 44.4 43.4455 44.8484 43.9818 44.8484ZM44.8758 37.583H51.6697V43.0545H44.8758V37.583Z" fill="black"/>
<path d="M43.9818 56.0604H52.5636C53.1 56.0604 53.4576 55.7016 53.4576 55.1634V47.8979C53.4576 47.3598 53.1 47.001 52.5636 47.001H43.9818C43.4455 47.001 43.0879 47.3598 43.0879 47.8979V55.1634C43.0879 55.6119 43.4455 56.0604 43.9818 56.0604ZM44.8758 48.7949H51.6697V54.2664H44.8758V48.7949Z" fill="black"/>
<path d="M15.2865 13.6338H22.5274C23.0638 13.6338 23.4214 13.275 23.4214 12.7368V6.18896C23.4214 5.65078 23.0638 5.29199 22.5274 5.29199H15.2865C14.7502 5.29199 14.3926 5.65078 14.3926 6.18896V12.8265C14.3926 13.275 14.8395 13.6338 15.2865 13.6338ZM16.1805 7.08593H21.6335V11.9296H16.1805V7.08593Z" fill="black"/>
<path d="M27.0863 13.6338H34.3272C34.8636 13.6338 35.2212 13.275 35.2212 12.7368V6.18896C35.2212 5.65078 34.8636 5.29199 34.3272 5.29199H27.0863C26.55 5.29199 26.1924 5.65078 26.1924 6.18896V12.8265C26.1924 13.275 26.6394 13.6338 27.0863 13.6338ZM27.9803 7.08593H33.4333V11.9296H27.9803V7.08593Z" fill="black"/>
<path d="M23.5102 17.4009C23.5102 16.8627 23.1527 16.5039 22.6163 16.5039H15.3754C14.839 16.5039 14.4814 16.8627 14.4814 17.4009V24.0385C14.4814 24.5766 14.839 24.9354 15.3754 24.9354H22.6163C23.1527 24.9354 23.5102 24.5766 23.5102 24.0385V17.4009ZM21.7224 23.1415H16.2693V18.2978H21.7224V23.1415Z" fill="black"/>
<path d="M27.0863 24.9354H34.3272C34.8636 24.9354 35.2212 24.5766 35.2212 24.0385V17.4009C35.2212 16.8627 34.8636 16.5039 34.3272 16.5039H27.0863C26.55 16.5039 26.1924 16.8627 26.1924 17.4009V24.0385C26.1924 24.4869 26.6394 24.9354 27.0863 24.9354ZM27.9803 18.2978H33.4333V23.1415H27.9803V18.2978Z" fill="black"/>
<path d="M27.0863 36.1475H34.3272C34.8636 36.1475 35.2212 35.7887 35.2212 35.2505V28.7026C35.2212 28.1645 34.8636 27.8057 34.3272 27.8057H27.0863C26.55 27.8057 26.1924 28.1645 26.1924 28.7026V35.3402C26.1924 35.7887 26.6394 36.1475 27.0863 36.1475ZM27.9803 29.5996H33.4333V34.4432H27.9803V29.5996Z" fill="black"/>
</svg>
