<svg width="64" height="80" viewBox="0 0 64 80" fill="none" xmlns="http://www.w3.org/2000/svg">
<path d="M9 52H17C17.552 52 18 51.552 18 51V43C18 42.448 17.552 42 17 42H9C8.448 42 8 42.448 8 43V51C8 51.552 8.448 52 9 52ZM10 44H16V50H10V44Z" fill="black"/>
<path d="M23 52H31C31.552 52 32 51.552 32 51V43C32 42.448 31.552 42 31 42H23C22.448 42 22 42.448 22 43V51C22 51.552 22.448 52 23 52ZM24 44H30V50H24V44Z" fill="black"/>
<path d="M45 44H41C40.448 44 40 44.448 40 45V49C40 49.552 40.448 50 41 50H45C45.552 50 46 49.552 46 49V45C46 44.448 45.552 44 45 44ZM44 48H42V46H44V48Z" fill="black"/>
<path d="M45 52H41C40.448 52 40 52.448 40 53V57C40 57.552 40.448 58 41 58H45C45.552 58 46 57.552 46 57V53C46 52.448 45.552 52 45 52ZM44 56H42V54H44V56Z" fill="black"/>
<path d="M61.498 16.133C61.187 15.955 60.805 15.956 60.496 16.136L50 22.259V17C50 16.642 49.809 16.311 49.498 16.133C49.187 15.955 48.805 15.956 48.496 16.136L36.496 23.136C36.189 23.315 36 23.645 36 24V32H30.967L30 2.967C29.981 2.428 29.54 2 29 2H25C24.46 2 24.019 2.428 24 2.967L23.033 32H18.968L18 2.967C17.981 2.428 17.54 2 17 2H13C12.46 2 12.019 2.428 12 2.967L11.033 32H8C7.735 32 7.48 32.105 7.293 32.293L2.293 37.293C2.105 37.48 2 37.735 2 38V61C2 61.552 2.448 62 3 62H37H49H61C61.552 62 62 61.552 62 61V17C62 16.642 61.809 16.311 61.498 16.133ZM28.033 4L28.1 6H25.901L25.968 4H28.033ZM25.834 8H28.166L28.966 32H25.033L25.834 8ZM16.033 4L16.1 6H13.901L13.968 4H16.033ZM13.834 8H16.166L16.966 32H13.033L13.834 8ZM8.414 34H12H18H24H30H36V56H4V38.414L8.414 34ZM4 58H36V60H4V58ZM38 33V24.574L48 18.741V24V60H38V33ZM60 60H50V24.574L60 18.741V60Z" fill="black"/>
<path d="M42 28H40V30H42V28Z" fill="black"/>
<path d="M10 37H8V39H10V37Z" fill="black"/>
<path d="M14 37H12V39H14V37Z" fill="black"/>
<path d="M18 37H16V39H18V37Z" fill="black"/>
<path d="M24 37H22V39H24V37Z" fill="black"/>
<path d="M28 37H26V39H28V37Z" fill="black"/>
<path d="M32 37H30V39H32V37Z" fill="black"/>
<path d="M46 28H44V30H46V28Z" fill="black"/>
<path d="M42 32H40V34H42V32Z" fill="black"/>
<path d="M46 32H44V34H46V32Z" fill="black"/>
<path d="M42 36H40V38H42V36Z" fill="black"/>
<path d="M46 36H44V38H46V36Z" fill="black"/>
<path d="M42 40H40V42H42V40Z" fill="black"/>
<path d="M46 40H44V42H46V40Z" fill="black"/>
<path d="M53 50H57C57.552 50 58 49.552 58 49V45C58 44.448 57.552 44 57 44H53C52.448 44 52 44.448 52 45V49C52 49.552 52.448 50 53 50ZM54 46H56V48H54V46Z" fill="black"/>
<path d="M53 58H57C57.552 58 58 57.552 58 57V53C58 52.448 57.552 52 57 52H53C52.448 52 52 52.448 52 53V57C52 57.552 52.448 58 53 58ZM54 54H56V56H54V54Z" fill="black"/>
<path d="M54 28H52V30H54V28Z" fill="black"/>
<path d="M58 28H56V30H58V28Z" fill="black"/>
<path d="M54 32H52V34H54V32Z" fill="black"/>
<path d="M58 32H56V34H58V32Z" fill="black"/>
<path d="M54 36H52V38H54V36Z" fill="black"/>
<path d="M58 36H56V38H58V36Z" fill="black"/>
<path d="M54 40H52V42H54V40Z" fill="black"/>
<path d="M58 40H56V42H58V40Z" fill="black"/>
</svg>
