<svg width="20" height="20" viewBox="0 0 20 20" fill="none" xmlns="http://www.w3.org/2000/svg">
<path fill-rule="evenodd" clip-rule="evenodd" d="M4.16797 7.50033C4.16797 4.27533 6.7763 1.66699 10.0013 1.66699C13.2263 1.66699 15.8346 4.27533 15.8346 7.50033C15.8346 11.8753 10.0013 18.3337 10.0013 18.3337C10.0013 18.3337 4.16797 11.8753 4.16797 7.50033ZM7.91797 7.50033C7.91797 6.34973 8.85071 5.41699 10.0013 5.41699C10.7456 5.41699 11.4334 5.81407 11.8055 6.45866C12.1777 7.10324 12.1777 7.89741 11.8055 8.54199C11.4334 9.18658 10.7456 9.58366 10.0013 9.58366C8.85071 9.58366 7.91797 8.65092 7.91797 7.50033Z" fill="#1389D3"/>
</svg>
