<svg width="32" height="32" viewBox="0 0 32 32" fill="none" xmlns="http://www.w3.org/2000/svg">
<path fill-rule="evenodd" clip-rule="evenodd" d="M16.0013 2.66602C10.8413 2.66602 6.66797 6.83935 6.66797 11.9993C6.66797 18.9994 16.0013 29.3327 16.0013 29.3327C16.0013 29.3327 25.3346 18.9994 25.3346 11.9993C25.3346 6.83935 21.1613 2.66602 16.0013 2.66602ZM9.33667 11.9993C9.33667 8.31929 12.3233 5.33262 16.0033 5.33262C19.6833 5.33262 22.67 8.31929 22.67 11.9993C22.67 15.8393 18.83 21.586 16.0033 25.1726C13.23 21.6126 9.33667 15.7993 9.33667 11.9993ZM12.668 11.9993C12.668 10.1584 14.1604 8.66602 16.0013 8.66602C17.1922 8.66602 18.2926 9.30135 18.8881 10.3327C19.4835 11.364 19.4835 12.6347 18.8881 13.666C18.2926 14.6974 17.1922 15.3327 16.0013 15.3327C14.1604 15.3327 12.668 13.8403 12.668 11.9993Z" fill="#8C9AAB"/>
</svg>
